<svg width="1020" height="481" viewBox="0 0 1020 481" fill="none" xmlns="http://www.w3.org/2000/svg">
<rect x="0.5" y="0.5" width="1019" height="480" stroke="white"/>
<rect x="0.5" y="0.5" width="1019" height="65" stroke="white"/>
<rect x="74.5" y="21.5" width="24" height="24" stroke="#5AC4BA"/>
<rect x="454.5" y="26.5" width="110" height="13" stroke="white"/>
<rect x="349.5" y="105.5" width="176" height="13" stroke="white"/>
<rect x="349.5" y="122.5" width="137" height="7" stroke="white"/>
<rect x="350.5" y="165.5" width="60" height="45" stroke="#5AC4BA"/>
<rect x="430.5" y="176.5" width="84" height="11" stroke="white"/>
<rect x="430.5" y="192.5" width="122" height="6" stroke="white"/>
<rect x="612.5" y="184.5" width="4" height="6" stroke="#5AC4BA"/>
<rect x="350.5" y="218.5" width="60" height="45" stroke="#5AC4BA"/>
<rect x="430.5" y="229.5" width="84" height="11" stroke="white"/>
<rect x="430.5" y="245.5" width="122" height="6" stroke="white"/>
<rect x="612.5" y="237.5" width="4" height="6" stroke="#5AC4BA"/>
<rect x="350.5" y="282.5" width="60" height="45" stroke="#5AC4BA"/>
<rect x="430.5" y="293.5" width="84" height="11" stroke="white"/>
<rect x="430.5" y="309.5" width="122" height="6" stroke="white"/>
<rect x="612.5" y="301.5" width="4" height="6" stroke="#5AC4BA"/>
<rect x="686.5" y="105.5" width="176" height="13" stroke="white"/>
<rect x="686.5" y="133.5" width="82" height="5" stroke="white"/>
<rect x="686.5" y="143.5" width="96" height="11" stroke="white"/>
<rect x="686.5" y="326.5" width="82" height="5" stroke="white"/>
<rect x="686.5" y="336.5" width="96" height="11" stroke="white"/>
<rect x="686.5" y="363.5" width="89" height="16" stroke="#F54963"/>
<rect x="937.5" y="412.5" width="25" height="26" stroke="#5AC4BA"/>
<rect x="686.5" y="287.5" width="82" height="5" stroke="white"/>
<rect x="686.5" y="297.5" width="96" height="11" stroke="white"/>
<rect x="686.5" y="248.5" width="82" height="5" stroke="white"/>
<rect x="686.5" y="258.5" width="96" height="11" stroke="white"/>
<rect x="686.5" y="208.5" width="82" height="5" stroke="white"/>
<rect x="686.5" y="218.5" width="96" height="11" stroke="white"/>
<rect x="686.5" y="170.5" width="82" height="5" stroke="white"/>
<rect x="686.5" y="180.5" width="96" height="11" stroke="white"/>
<rect x="72.5" y="105.5" width="176" height="13" stroke="white"/>
<rect x="72.5" y="132.5" width="235" height="241" stroke="white"/>
<rect x="72.5" y="132.5" width="235" height="43" stroke="#5AC4BA"/>
<rect x="154.5" y="149.5" width="72" height="9" stroke="white"/>
<line x1="328.5" y1="81" x2="328.5" y2="379" stroke="white"/>
<line x1="665.5" y1="81" x2="665.5" y2="379" stroke="white"/>
</svg>
