<svg width="470" height="271" viewBox="0 0 470 271" fill="none" xmlns="http://www.w3.org/2000/svg">
<rect x="0.55" y="0.55" width="181.9" height="246.9" stroke="white" stroke-width="1.1"/>
<rect x="314.55" y="0.55" width="154.9" height="165.9" stroke="white" stroke-width="1.1"/>
<rect x="325.55" y="50.55" width="17.9" height="17.9" stroke="#972FE2" stroke-width="1.1"/>
<rect x="346.55" y="60.55" width="62.9" height="7.9" stroke="white" stroke-opacity="0.6" stroke-width="1.1"/>
<rect x="325.55" y="75.55" width="17.9" height="17.9" stroke="#972FE2" stroke-width="1.1"/>
<rect x="346.55" y="85.55" width="62.9" height="7.9" stroke="white" stroke-opacity="0.6" stroke-width="1.1"/>
<rect x="326.55" y="121.55" width="62.9" height="7.9" stroke="white" stroke-opacity="0.6" stroke-width="1.1"/>
<rect x="326.55" y="134.55" width="94.9" height="11.9" stroke="white" stroke-opacity="0.6" stroke-width="1.1"/>
<rect x="443.55" y="134.55" width="10.9" height="11.9" stroke="#972FE2" stroke-width="1.1"/>
<rect x="326.55" y="11.55" width="65.9" height="10.9" stroke="white" stroke-opacity="0.6" stroke-width="1.1"/>
<rect x="191.55" y="0.55" width="115.9" height="269.9" stroke="white" stroke-width="1.1"/>
<rect x="199.55" y="48.55" width="100.9" height="76.9" stroke="white" stroke-opacity="0.6" stroke-width="1.1"/>
<rect x="199.55" y="11.55" width="23.9" height="18.9" stroke="#972FE2" stroke-width="1.1"/>
<rect x="229.55" y="11.55" width="48.9" height="18.9" stroke="white" stroke-opacity="0.6" stroke-width="1.1"/>
<rect x="199.55" y="132.55" width="100.9" height="76.9" stroke="white" stroke-opacity="0.6" stroke-width="1.1"/>
<rect x="199.55" y="220.55" width="100.9" height="39.9" stroke="white" stroke-opacity="0.6" stroke-width="1.1"/>
<rect x="15.55" y="217.55" width="152.9" height="19.9" stroke="white" stroke-opacity="0.6" stroke-width="1.1"/>
<rect x="15.55" y="186.55" width="152.9" height="25.9" stroke="white" stroke-opacity="0.6" stroke-width="1.1"/>
<rect x="15.55" y="57.55" width="152.9" height="12.9" stroke="white" stroke-opacity="0.6" stroke-width="1.1"/>
<rect x="15.55" y="34.55" width="87.9" height="12.9" stroke="white" stroke-opacity="0.6" stroke-width="1.1"/>
<rect x="158.55" y="34.55" width="9.9" height="12.9" stroke="white" stroke-opacity="0.6" stroke-width="1.1"/>
<rect x="141.55" y="11.55" width="26.9" height="12.9" stroke="white" stroke-opacity="0.6" stroke-width="1.1"/>
<rect x="100.55" y="11.55" width="30.9" height="12.9" stroke="#972FE2" stroke-width="1.1"/>
<rect x="15.55" y="11.55" width="30.9" height="12.9" stroke="white" stroke-opacity="0.6" stroke-width="1.1"/>
<rect x="15.55" y="76.55" width="152.9" height="69.9" stroke="white" stroke-opacity="0.6" stroke-width="1.1"/>
<rect x="15.55" y="154.55" width="152.9" height="25.9" stroke="white" stroke-opacity="0.6" stroke-width="1.1"/>
<rect x="101.55" y="193.55" width="54.9" height="12.9" stroke="#972FE2" stroke-width="1.1"/>
<rect x="28.55" y="193.55" width="54.9" height="12.9" stroke="white" stroke-opacity="0.6" stroke-width="1.1"/>
</svg>
