<svg width="485" height="295" viewBox="0 0 485 295" fill="none" xmlns="http://www.w3.org/2000/svg">
<rect x="1" y="1" width="483" height="293" stroke="white" stroke-width="2"/>
<rect x="1" y="1" width="483" height="43" stroke="white" stroke-width="2"/>
<rect x="19" y="17" width="90" height="13" stroke="white" stroke-width="2"/>
<rect x="29" y="75" width="40" height="6" stroke="white" stroke-width="2"/>
<rect x="29" y="90" width="52" height="7" stroke="white" stroke-width="2"/>
<rect x="29" y="124" width="40" height="6" stroke="white" stroke-width="2"/>
<rect x="29" y="139" width="52" height="6" stroke="white" stroke-width="2"/>
<rect x="29" y="171" width="40" height="5" stroke="white" stroke-width="2"/>
<rect x="29" y="185" width="52" height="6" stroke="white" stroke-width="2"/>
<rect x="29" y="251" width="52" height="22" stroke="white" stroke-width="2"/>
<rect x="254" y="251" width="110" height="22" stroke="white" stroke-width="2"/>
<rect x="392" y="251" width="62" height="22" stroke="white" stroke-width="2"/>
<rect x="203" y="75" width="40" height="6" stroke="white" stroke-width="2"/>
<rect x="203" y="90" width="52" height="7" stroke="white" stroke-width="2"/>
<rect x="203" y="124" width="40" height="6" stroke="white" stroke-width="2"/>
<rect x="203" y="139" width="52" height="6" stroke="white" stroke-width="2"/>
<rect x="203" y="171" width="40" height="5" stroke="white" stroke-width="2"/>
<rect x="203" y="185" width="52" height="6" stroke="white" stroke-width="2"/>
<rect x="392" y="17" width="12" height="13" stroke="white" stroke-width="2"/>
<rect x="421" y="17" width="14" height="13" stroke="white" stroke-width="2"/>
<rect x="450" y="17" width="14" height="13" stroke="white" stroke-width="2"/>
</svg>
